<?xml version="1.0" encoding="utf-8"?>
<!-- Generator: Adobe Illustrator 24.2.1, SVG Export Plug-In . SVG Version: 6.00 Build 0)  -->
<svg version="1.1" id="Layer_1" xmlns="http://www.w3.org/2000/svg" xmlns:xlink="http://www.w3.org/1999/xlink" x="0px" y="0px"
	 viewBox="0 0 905 324" style="enable-background:new 0 0 905 324;" xml:space="preserve">
<style type="text/css">
	.st0{fill:#FFFFFF;}
</style>
<path d="M504.2,235.7c-6,0-11.1,0-16.4,0c0-75.3,0-150.4,0-225.7c5.4,0,10.5,0,16.2,0c0,32.1,0,64,0,96.2c21.5,0,42.5,0,64.1,0
	c0-31.9,0-63.8,0-96c5.7,0,10.8,0,16.2,0c0,75.2,0,150.3,0,225.6c-5.3,0-10.4,0-15.9,0c0-37.5,0-74.7,0-112.4c-21.5,0-42.6,0-64.2,0
	C504.2,160.6,504.2,198,504.2,235.7z"/>
<path d="M899.6,122.8c0,21.3,0,42.7,0,64c0,27.2-21.1,49-47.4,49.2c-27.8,0.2-49.5-20.8-49.6-48.5c-0.2-43-0.2-86,0-129
	c0.1-27.7,21.6-48.8,49-48.7c27.1,0.1,48.1,21.7,48.1,49.5C899.6,80.5,899.6,101.7,899.6,122.8z M819,123c0,21.3,0,42.6,0,64
	c0,18.3,13.9,32.6,31.9,32.8c17.2,0.2,32-13.8,32.2-31.6c0.3-43.6,0.3-87.3,0-130.9c-0.1-17.7-15-31.5-32.4-31.3
	C832.9,26.3,819,40.6,819,58.6C819,80.1,819,101.5,819,123z"/>
<path d="M657.6,10.5c5.3,0,10.4,0,16.1,0c0,36.2,0,72.3,0,108.3c0.3,0.1,0.7,0.2,1,0.3c0.9-1.4,1.9-2.8,2.8-4.3
	c19.6-32.5,39.4-64.9,58.6-97.6c3.5-5.9,7.3-8.4,13.8-7.3c1.3,0.2,2.6,0.2,4,0.3c0.5,4.9,0.3,9.1-2.4,13.5
	c-19.2,31.6-38.1,63.3-57.2,94.9c-1.9,3.2-1.7,5.4,0.1,8.4c18.7,31.1,37.1,62.4,55.9,93.4c2.9,4.8,4.8,9.4,3.6,15.4
	c-3.7,0-7.7,0.4-11.6-0.2c-1.5-0.2-3-2.3-4-3.8c-18.2-30.1-36.2-60.2-54.3-90.3c-0.4-0.7-0.9-1.4-1.7-2.7c-3.8,7-8.9,12.4-8.7,21.2
	c0.6,23.3,0.2,46.7,0.2,70c0,1.8,0,3.6,0,5.6c-5.6,0-10.7,0-16.2,0C657.6,160.9,657.6,86,657.6,10.5z"/>
<path d="M253.8,10.4c5.6,0,10.5,0,16.1,0c0.1,1.8,0.3,3.5,0.3,5.2c0,56.8,0,113.7,0,170.5c0,27-18,47.4-43.9,50
	c-27,2.8-51-17.5-53-44.8c-0.1-1.5-0.2-3-0.2-4.5c0-57.5,0-115,0-172.5c0-1.2,0-2.3,0-3.9c5.5,0,10.7,0,16.6,0c0,2.2,0,4.3,0,6.4
	c0,56.8-0.1,113.7,0,170.5c0,24.3,24.4,39.9,46,29.3c12.5-6.1,18.2-16.7,18.2-30.3c0-56.5,0-113,0-169.5
	C253.8,15,253.8,13,253.8,10.4z"/>
<path d="M11.9,187.7c5.4,0,10.5,0,15.9,0c0.6,9.6,3.8,18,11.1,24.4c12.7,11.1,31.6,10.6,43.7-1c11.7-11.3,13.2-30.2,2.9-43.2
	c-20.9-26.4-42-52.5-62.9-78.9C3,64.4,10.9,28.7,38.7,14.9c26-13,58.5,0.1,67.2,27.4c-4.9,1.7-9.8,3.5-13.2,4.7
	c-5.9-6-10.2-12.1-16.1-16c-13.1-8.7-30-5.4-40.6,6.6c-10.3,11.7-10.6,28.4-0.5,41.3c13.7,17.4,27.6,34.6,41.4,52
	c7.5,9.4,15.2,18.6,22.4,28.2c12.5,16.5,12.4,40.5,0.1,57.5C87,233.6,64.8,240.7,44.8,234C24.8,227.3,11.6,208.9,11.9,187.7z"/>
<path d="M335.1,187.7c5.2,0,10.4,0,15.6,0c0.6,3.2,1,6.3,1.8,9.3c3.5,12.3,14.2,21.4,27,22.8c13,1.5,25.5-4.9,31.9-16.3
	c6.4-11.4,5.3-25.6-3.1-36.1c-20.7-26.1-41.7-51.9-62.3-78.1c-13.2-16.8-15.2-35.4-5-54.2c10.1-18.7,26.8-27.1,47.8-24.9
	c19.6,2,32.8,13.2,40.5,31.9c-4.6,1.7-8.9,3.5-13.3,4.6c-1,0.3-3.2-1.6-3.9-3c-8.5-15.8-27.1-22-42.7-14.2
	c-18.8,9.4-24,32.3-10.8,49.1c20.6,26.2,41.5,52.1,62.3,78.2c10.6,13.3,13.6,28.4,9,44.7c-6.4,23.2-28.7,37.4-53.4,34.5
	c-22.2-2.6-40.7-22.7-41.5-45C334.9,190,335,189,335.1,187.7z"/>
<path d="M112.8,284.5c4.7,0,8.9-0.2,13.2,0c7.2,0.4,12,3.7,13.4,9.1c1.3,5.1-0.6,8.7-7.2,13.1c1.8,2.2,3.6,4.3,5.3,6.5
	c0.7,0.9,1.3,1.9,1.3,4.1c-1.7-0.8-4.2-1.2-4.9-2.5c-3.7-6.6-9.4-7.8-16.7-6.4c0,2.5,0,5.2,0,8c-0.5,0.3-0.9,0.7-1.4,1
	c-1-1-2.8-1.9-2.9-2.9C112.7,304.7,112.8,294.9,112.8,284.5z M117.2,304.7c4.5-0.4,8.5-0.3,12.3-1.1c3.7-0.8,6.1-3.5,6.1-7.4
	c0-3.7-2.2-6.4-5.8-7.2c-4.1-0.8-8.3-0.9-12.7-1.3C117.2,293.7,117.2,298.7,117.2,304.7z"/>
<path d="M872.3,308c3.6,4.5,8.6,6.1,13.9,4.8c2.4-0.6,5.6-2.9,6.2-5.1c1-3.6-2.6-4.9-5.6-5.5c-3.1-0.7-6.3-0.7-9.4-1.5
	c-3.5-0.9-6.7-2.5-6.9-6.8c-0.2-4.5,2.4-7.2,6.4-8.5c6.8-2.2,13.1-1,18.5,3.8c-0.1,0.5-0.1,1.1-0.2,1.6c-1.4-0.2-2.9-0.4-4.3-0.6
	c-4-0.5-8-1.5-12-1.4c-1.4,0-3.8,2.7-3.8,4.3c0,1.3,2.3,3.4,4,4c3.3,1.1,6.9,1.2,10.3,1.9c4.3,0.9,7.4,3.2,7.6,8
	c0.2,4.7-2.7,7.4-6.8,8.8c-6.4,2.2-12.5,1.5-17.9-2.8c-1.1-0.9-1.2-2.8-1.8-4.3C871,308.5,871.7,308.3,872.3,308z"/>
<path d="M12.7,316.3c4.5-10,9-19.9,13.6-29.9c1.5-3.2,3.2-2.3,4.4,0.3c4.5,9.8,8.9,19.6,12.6,30.6c-1.5-0.8-4.1-1.4-4.4-2.5
	c-1.5-6.7-6.3-6.2-11.4-6.4c-4.8-0.2-7.8,0.9-9.4,5.8c-0.5,1.4-2.6,2.3-4,3.5C13.6,317.2,13.2,316.7,12.7,316.3z M34.3,304.7
	c-2.1-4.6-3.8-8.4-6-13.1c-2,4.8-3.8,8.7-5.6,13.1C26.9,304.7,30.2,304.7,34.3,304.7z"/>
<path d="M587.1,302.2c0,3.8,0,7,0,10.7c5.9,0.9,12.4-0.5,18.3,0.8c-0.2,1-0.5,2.1-0.7,3.1c-7.1,0-14.2,0-21.6,0
	c0-10.7,0-21.3,0-31.7c10.3-1.9,20.9-0.8,22,2.9c-3.1,0-6,0-8.9,0c-3,0-5.9,0-9.2,0c0,3.7,0,6.9,0,10.8c4.4,0,8.6-0.1,12.9,0.1
	c1.4,0.1,2.7,1,4.1,1.5c-1.3,0.6-2.5,1.6-3.9,1.7C595.9,302.3,591.7,302.2,587.1,302.2z"/>
<path d="M305,298.5c6.4,0,12.3,0,18.8,0c0-3.9-0.2-7.5,0.1-11.1c0.1-1,1.4-2,2.2-3c0.6,0.9,1.8,1.9,1.8,2.8c0.1,9.6,0.1,19.3,0.1,29
	c-2.6,1.1-4.3,1.2-4.2-2.2c0.1-3.8,0-7.6,0-11.6c-6.5,0-12.4,0-18.7,0c0,4.8,0,9.4,0,13.9c-3.1,1.2-4.3,0.5-4.3-2.6
	c0.1-8.7,0.1-17.3,0-26c0-2.8,0.8-4.1,4.2-2.7C305,289.4,305,293.9,305,298.5z"/>
<path d="M703.9,311.9c-7,6.9-18.3,7-25.6,0.1c-6.2-5.9-6.6-15.4-0.9-21.6c6.9-7.6,18.2-8,26.5,0.3c-1.4-0.1-3,0.2-4.2-0.4
	c-5.4-2.9-10.8-3.4-16.1-0.2c-5.8,3.6-7.7,11-4.4,16.6c3.6,6.3,12.2,8.5,19.4,5c1.6-0.8,3.3-1.1,5-1.7
	C703.7,310.7,703.8,311.3,703.9,311.9z"/>
<path d="M236.6,312c-7.9,6.9-19.1,6.7-26.1-0.5c-6-6.2-6-15.3,0-21.6c6.8-7.1,18.4-7.2,25.9,1.1c-1.6-0.3-3.3-0.2-4.7-0.9
	c-8.7-4.3-18.1-1.2-20.8,6.8c-1.6,4.7-0.2,9.9,3.6,13.1c4.5,3.9,11.2,4.4,16.9,1.5c1.5-0.7,3.3-0.9,4.9-1.3
	C236.4,310.8,236.5,311.4,236.6,312z"/>
<path d="M497.2,316.4c0-9.2,0-18.5,0-28.3c-3.8,0-7.2,0-10.6,0c-0.2-0.6-0.5-1.1-0.7-1.7c1.3-0.7,2.5-1.8,3.8-1.9
	c17-1.1,21.7-0.4,22.6,3.3c-3.3,0-6.6,0-10.8,0c0,8.8,0,17.2,0,25.6C501.5,316.9,501.4,316.9,497.2,316.4z"/>
<path d="M784.4,316.5c0-9.3,0-18.6,0-28.4c-3.8,0-7.2,0-10.6,0c-0.2-0.6-0.4-1.2-0.6-1.8c1.3-0.6,2.6-1.7,3.9-1.7
	c18.9-0.9,21.1-0.6,22.2,3.3c-3.4,0-6.6,0-10.6,0c0,8.8-0.1,17.2,0,25.6C788.9,316.2,788.2,317.7,784.4,316.5z"/>
<path d="M409.6,289.5c0,6.4-0.1,13.5,0.1,20.7c0,1.2,1.6,2.3,2.4,3.4c0.7,0.9,1.3,1.7,2.6,3.3c-5.1,0-9,0-13.3,0
	c0.1-0.9-0.1-2.3,0.2-2.3c4.7-1.2,3.6-5,3.6-8.3c0-5.8,0-11.6,0-16.7c-1.6-1.5-2.8-2.5-3.9-3.6c1.4-0.5,2.8-1.1,4.3-1.4
	c1.1-0.2,2.4-0.2,3.5,0c1.6,0.3,3.1,1,4.7,1.5C412.5,287,411.3,288,409.6,289.5z"/>
<path class="st0" d="M117.2,304.7c0-6,0-11,0-17c4.4,0.4,8.6,0.5,12.7,1.3c3.6,0.7,5.7,3.5,5.8,7.2c0,4-2.4,6.7-6.1,7.4
	C125.7,304.4,121.7,304.3,117.2,304.7z"/>
<path class="st0" d="M34.3,304.7c-4.1,0-7.4,0-11.6,0c1.9-4.3,3.6-8.3,5.6-13.1C30.5,296.2,32.2,300.1,34.3,304.7z"/>
</svg>
